# Blender v2.79 (sub 0) OBJ File: ''
# www.blender.org
mtllib pole.mtl
o Cylinder
v 0.821704 1.593826 -2.535305
v 0.821704 -2.013725 -2.535305
v 0.840592 1.593826 -2.534235
v 0.840592 -2.013725 -2.534235
v 0.858753 1.593826 -2.531069
v 0.858753 -2.013725 -2.531069
v 0.875491 1.593826 -2.525927
v 0.875491 -2.013725 -2.525927
v 0.890161 1.593826 -2.519008
v 0.890161 -2.013725 -2.519008
v 0.902201 1.593826 -2.510576
v 0.902201 -2.013725 -2.510576
v 0.911148 1.593826 -2.500957
v 0.911148 -2.013725 -2.500957
v 0.916657 1.593826 -2.490519
v 0.916657 -2.013725 -2.490519
v 0.918517 1.593826 -2.479664
v 0.918517 -2.013725 -2.479664
v 0.916657 1.593826 -2.468810
v 0.916657 -2.013725 -2.468810
v 0.911148 1.593826 -2.458372
v 0.911148 -2.013725 -2.458372
v 0.902201 1.593826 -2.448752
v 0.902201 -2.013725 -2.448752
v 0.890161 1.593826 -2.440321
v 0.890161 -2.013725 -2.440321
v 0.875491 1.593826 -2.433401
v 0.875491 -2.013725 -2.433401
v 0.858753 1.593826 -2.428260
v 0.858753 -2.013725 -2.428260
v 0.840592 1.593826 -2.425093
v 0.840592 -2.013725 -2.425093
v 0.821704 1.593826 -2.424024
v 0.821704 -2.013725 -2.424024
v 0.802817 1.593826 -2.425093
v 0.802817 -2.013725 -2.425093
v 0.784656 1.593826 -2.428260
v 0.784656 -2.013725 -2.428260
v 0.767918 1.593826 -2.433401
v 0.767918 -2.013725 -2.433401
v 0.753247 1.593826 -2.440321
v 0.753247 -2.013725 -2.440321
v 0.741208 1.593826 -2.448752
v 0.741208 -2.013725 -2.448752
v 0.732261 1.593826 -2.458372
v 0.732261 -2.013725 -2.458372
v 0.726752 1.593826 -2.468810
v 0.726752 -2.013725 -2.468810
v 0.724892 1.593826 -2.479664
v 0.724892 -2.013725 -2.479664
v 0.726752 1.593826 -2.490519
v 0.726752 -2.013725 -2.490519
v 0.732261 1.593826 -2.500957
v 0.732261 -2.013725 -2.500957
v 0.741208 1.593826 -2.510576
v 0.741208 -2.013725 -2.510576
v 0.753248 1.593826 -2.519008
v 0.753248 -2.013725 -2.519008
v 0.767918 1.593826 -2.525928
v 0.767918 -2.013725 -2.525928
v 0.784656 1.593826 -2.531069
v 0.784656 -2.013725 -2.531069
v 0.802817 1.593826 -2.534235
v 0.802817 -2.013725 -2.534235
vn 0.0565 0.0000 -0.9984
vn 0.1718 0.0000 -0.9851
vn 0.2937 0.0000 -0.9559
vn 0.4266 0.0000 -0.9045
vn 0.5736 0.0000 -0.8191
vn 0.7323 0.0000 -0.6810
vn 0.8844 0.0000 -0.4668
vn 0.9856 0.0000 -0.1689
vn 0.9856 0.0000 0.1689
vn 0.8844 0.0000 0.4668
vn 0.7323 0.0000 0.6810
vn 0.5736 0.0000 0.8191
vn 0.4266 0.0000 0.9044
vn 0.2937 0.0000 0.9559
vn 0.1717 0.0000 0.9851
vn 0.0565 0.0000 0.9984
vn -0.0565 0.0000 0.9984
vn -0.1717 0.0000 0.9851
vn -0.2937 0.0000 0.9559
vn -0.4266 0.0000 0.9044
vn -0.5736 0.0000 0.8191
vn -0.7323 0.0000 0.6810
vn -0.8844 0.0000 0.4668
vn -0.9856 0.0000 0.1689
vn -0.9856 0.0000 -0.1689
vn -0.8844 0.0000 -0.4668
vn -0.7323 0.0000 -0.6810
vn -0.5736 0.0000 -0.8191
vn -0.4266 0.0000 -0.9044
vn -0.2936 0.0000 -0.9559
vn 0.0000 -1.0000 -0.0000
vn -0.1718 0.0000 -0.9851
vn -0.0565 0.0000 -0.9984
vn 0.0000 1.0000 -0.0000
usemtl None
s off
f 1//1 3//1 4//1 2//1
f 3//2 5//2 6//2 4//2
f 5//3 7//3 8//3 6//3
f 7//4 9//4 10//4 8//4
f 9//5 11//5 12//5 10//5
f 11//6 13//6 14//6 12//6
f 13//7 15//7 16//7 14//7
f 15//8 17//8 18//8 16//8
f 17//9 19//9 20//9 18//9
f 19//10 21//10 22//10 20//10
f 21//11 23//11 24//11 22//11
f 23//12 25//12 26//12 24//12
f 25//13 27//13 28//13 26//13
f 27//14 29//14 30//14 28//14
f 29//15 31//15 32//15 30//15
f 31//16 33//16 34//16 32//16
f 33//17 35//17 36//17 34//17
f 35//18 37//18 38//18 36//18
f 37//19 39//19 40//19 38//19
f 39//20 41//20 42//20 40//20
f 41//21 43//21 44//21 42//21
f 43//22 45//22 46//22 44//22
f 45//23 47//23 48//23 46//23
f 47//24 49//24 50//24 48//24
f 49//25 51//25 52//25 50//25
f 51//26 53//26 54//26 52//26
f 53//27 55//27 56//27 54//27
f 55//28 57//28 58//28 56//28
f 57//29 59//29 60//29 58//29
f 59//30 61//30 62//30 60//30
f 4//31 6//31 8//31 10//31 12//31 14//31 16//31 18//31 20//31 22//31 24//31 26//31 28//31 30//31 32//31 34//31 36//31 38//31 40//31 42//31 44//31 46//31 48//31 50//31 52//31 54//31 56//31 58//31 60//31 62//31 64//31 2//31
f 61//32 63//32 64//32 62//32
f 63//33 1//33 2//33 64//33
f 1//34 63//34 61//34 59//34 57//34 55//34 53//34 51//34 49//34 47//34 45//34 43//34 41//34 39//34 37//34 35//34 33//34 31//34 29//34 27//34 25//34 23//34 21//34 19//34 17//34 15//34 13//34 11//34 9//34 7//34 5//34 3//34
